<svg width="24" height="24" viewBox="0 0 24 24" fill="none" xmlns="http://www.w3.org/2000/svg">
<g id="icon/copy">
<path id="Icon Vector" fill-rule="evenodd" clip-rule="evenodd" d="M5.55325 4.42172C5.25315 4.42172 4.96534 4.54094 4.75314 4.75314C4.54094 4.96534 4.42172 5.25315 4.42172 5.55325V14.7634C4.42172 15.0635 4.54094 15.3513 4.75314 15.5635C4.96534 15.7757 5.25315 15.8949 5.55325 15.8949H6.68478V9.2373C6.68478 7.82758 7.82758 6.68478 9.2373 6.68478H15.8949V5.55325C15.8949 5.25315 15.7757 4.96534 15.5635 4.75314C15.3513 4.54094 15.0635 4.42172 14.7634 4.42172H5.55325ZM17.3159 6.68478V5.55325C17.3159 4.87628 17.047 4.22704 16.5683 3.74835C16.0896 3.26966 15.4404 3.00073 14.7634 3.00073H5.55325C4.87628 3.00073 4.22704 3.26966 3.74835 3.74835C3.26966 4.22704 3.00073 4.87628 3.00073 5.55325V14.7634C3.00073 15.4404 3.26966 16.0896 3.74835 16.5683C4.22704 17.047 4.87628 17.3159 5.55325 17.3159H6.68478V18.4474C6.68478 19.8571 7.82758 21 9.2373 21H18.4474C19.8571 21 21 19.8571 21 18.4474V9.2373C21 7.82758 19.8571 6.68478 18.4474 6.68478H17.3159ZM16.6045 8.10577C16.6048 8.10577 16.6051 8.10577 16.6054 8.10577C16.6057 8.10577 16.606 8.10577 16.6063 8.10577H18.4474C19.0724 8.10577 19.579 8.61238 19.579 9.2373V18.4474C19.579 19.0724 19.0724 19.579 18.4474 19.579H9.2373C8.61238 19.579 8.10577 19.0724 8.10577 18.4474V16.6063C8.10577 16.606 8.10577 16.6057 8.10577 16.6054C8.10577 16.6051 8.10577 16.6048 8.10577 16.6045V9.2373C8.10577 8.61238 8.61238 8.10577 9.2373 8.10577H16.6045Z" fill="white"/>
</g>
</svg>
